# xmcd CD database file
#
# Track frame offsets:
#	150
#	19059
#	39257
#	59588
#	85375
#	106483
#	130666
#	147625
#	168127
#	185011
#	213368
#	238712
#	256775
#
# Disc length: 3692 seconds
#
# Revision: 0
# Processed by: cddbd v1.5.2PL0 Copyright (c) Steve Scherf et al.
# Submitted via: CDex 1.70beta2
#
DISCID=b40e6a0d
DTITLE=Ben Granfelt Band - The Sum Of Memories
DYEAR=2006
DGENRE=Blues
TTITLE0=Intro Jam
TTITLE1=Check Up From The Neck Up
TTITLE2=Falling Off From A Drunken Horse
TTITLE3=So Much Easier
TTITLE4=Confession Time
TTITLE5=We Play The Game
TTITLE6=Bridge Of Dreams
TTITLE7=Too Many Gods
TTITLE8=Riding Free
TTITLE9=Into You
TTITLE10=Beautiful
TTITLE11=Check Up From The Neck Up (Edit)
TTITLE12=So Much Easier (Edit)
EXTD=YEAR: 2006
EXTT0=
EXTT1=
EXTT2=
EXTT3=
EXTT4=
EXTT5=
EXTT6=
EXTT7=
EXTT8=
EXTT9=
EXTT10=
EXTT11=
EXTT12=
PLAYORDER=
